<mxfile host="Electron" modified="2024-05-29T09:30:13.574Z" agent="Mozilla/5.0 (Windows NT 10.0; Win64; x64) AppleWebKit/537.36 (KHTML, like Gecko) draw.io/24.4.7 Chrome/124.0.6367.207 Electron/30.0.6 Safari/537.36" etag="XzLMzBunBcVuful4XkvJ" version="24.4.7" type="device">
  <diagram name="第 1 页" id="EZfYZaEPvz0yNRW0LiYl">
    <mxGraphModel dx="4457" dy="1595" grid="0" gridSize="10" guides="1" tooltips="1" connect="1" arrows="1" fold="1" page="0" pageScale="1" pageWidth="827" pageHeight="1169" math="0" shadow="0">
      <root>
        <mxCell id="0" />
        <mxCell id="1" parent="0" />
        <mxCell id="F_v_zHEDnyoKxbIlZ8uZ-3" style="edgeStyle=orthogonalEdgeStyle;rounded=0;orthogonalLoop=1;jettySize=auto;html=1;exitX=0.5;exitY=1;exitDx=0;exitDy=0;" parent="1" source="F_v_zHEDnyoKxbIlZ8uZ-1" target="F_v_zHEDnyoKxbIlZ8uZ-2" edge="1">
          <mxGeometry relative="1" as="geometry" />
        </mxCell>
        <mxCell id="F_v_zHEDnyoKxbIlZ8uZ-17" style="edgeStyle=orthogonalEdgeStyle;rounded=0;orthogonalLoop=1;jettySize=auto;html=1;exitX=0.5;exitY=1;exitDx=0;exitDy=0;" parent="1" source="F_v_zHEDnyoKxbIlZ8uZ-1" target="F_v_zHEDnyoKxbIlZ8uZ-14" edge="1">
          <mxGeometry relative="1" as="geometry" />
        </mxCell>
        <mxCell id="F_v_zHEDnyoKxbIlZ8uZ-22" style="edgeStyle=orthogonalEdgeStyle;rounded=0;orthogonalLoop=1;jettySize=auto;html=1;exitX=0.5;exitY=1;exitDx=0;exitDy=0;" parent="1" source="F_v_zHEDnyoKxbIlZ8uZ-1" target="F_v_zHEDnyoKxbIlZ8uZ-21" edge="1">
          <mxGeometry relative="1" as="geometry" />
        </mxCell>
        <mxCell id="F_v_zHEDnyoKxbIlZ8uZ-1" value="router" style="rounded=1;whiteSpace=wrap;html=1;" parent="1" vertex="1">
          <mxGeometry x="340" y="270" width="120" height="60" as="geometry" />
        </mxCell>
        <mxCell id="F_v_zHEDnyoKxbIlZ8uZ-6" value="" style="edgeStyle=orthogonalEdgeStyle;rounded=0;orthogonalLoop=1;jettySize=auto;html=1;" parent="1" source="F_v_zHEDnyoKxbIlZ8uZ-2" target="F_v_zHEDnyoKxbIlZ8uZ-5" edge="1">
          <mxGeometry relative="1" as="geometry" />
        </mxCell>
        <mxCell id="F_v_zHEDnyoKxbIlZ8uZ-8" style="edgeStyle=orthogonalEdgeStyle;rounded=0;orthogonalLoop=1;jettySize=auto;html=1;exitX=0.5;exitY=1;exitDx=0;exitDy=0;" parent="1" source="F_v_zHEDnyoKxbIlZ8uZ-2" target="F_v_zHEDnyoKxbIlZ8uZ-7" edge="1">
          <mxGeometry relative="1" as="geometry" />
        </mxCell>
        <mxCell id="F_v_zHEDnyoKxbIlZ8uZ-2" value="songlist.SongList" style="rounded=1;whiteSpace=wrap;html=1;fillColor=#d5e8d4;strokeColor=#82b366;" parent="1" vertex="1">
          <mxGeometry x="-430" y="590" width="120" height="60" as="geometry" />
        </mxCell>
        <mxCell id="F_v_zHEDnyoKxbIlZ8uZ-5" value="selfsonglistservice.GetSonglistSongs" style="whiteSpace=wrap;html=1;rounded=1;fillColor=#d5e8d4;strokeColor=#82b366;" parent="1" vertex="1">
          <mxGeometry x="-550" y="880" width="120" height="60" as="geometry" />
        </mxCell>
        <mxCell id="F_v_zHEDnyoKxbIlZ8uZ-7" value="songlistservice.SonglistSongList" style="whiteSpace=wrap;html=1;rounded=1;fillColor=#d5e8d4;strokeColor=#82b366;" parent="1" vertex="1">
          <mxGeometry x="-340" y="880" width="120" height="60" as="geometry" />
        </mxCell>
        <mxCell id="F_v_zHEDnyoKxbIlZ8uZ-11" value="&lt;div style=&quot;background-color:#1e1f22;color:#bcbec4&quot;&gt;&lt;pre style=&quot;font-family:&#39;JetBrains Mono&#39;,monospace;font-size:9.8pt;&quot;&gt;&lt;span style=&quot;color:#afbf7e;&quot;&gt;vo&lt;/span&gt;.&lt;span style=&quot;color:#6fafbd;&quot;&gt;PageData&lt;/span&gt;&lt;/pre&gt;&lt;/div&gt;" style="text;html=1;align=center;verticalAlign=middle;resizable=0;points=[];autosize=1;strokeColor=none;fillColor=none;" parent="1" vertex="1">
          <mxGeometry x="-715" y="940" width="100" height="60" as="geometry" />
        </mxCell>
        <mxCell id="F_v_zHEDnyoKxbIlZ8uZ-12" value="&lt;div style=&quot;background-color:#1e1f22;color:#bcbec4&quot;&gt;&lt;pre style=&quot;font-family:&#39;JetBrains Mono&#39;,monospace;font-size:9.8pt;&quot;&gt;&lt;span style=&quot;color:#afbf7e;&quot;&gt;vo&lt;/span&gt;.&lt;span style=&quot;color:#6fafbd;&quot;&gt;SongLocalExt&lt;/span&gt;&lt;/pre&gt;&lt;/div&gt;" style="text;html=1;align=center;verticalAlign=middle;resizable=0;points=[];autosize=1;strokeColor=none;fillColor=none;" parent="1" vertex="1">
          <mxGeometry x="-730" y="880" width="130" height="60" as="geometry" />
        </mxCell>
        <mxCell id="F_v_zHEDnyoKxbIlZ8uZ-13" value="&lt;div style=&quot;background-color:#1e1f22;color:#bcbec4&quot;&gt;&lt;pre style=&quot;font-family:&#39;JetBrains Mono&#39;,monospace;font-size:9.8pt;&quot;&gt;&lt;span style=&quot;color:#afbf7e;&quot;&gt;vo&lt;/span&gt;.&lt;span style=&quot;color:#6fafbd;&quot;&gt;Song&lt;/span&gt;&lt;/pre&gt;&lt;/div&gt;" style="text;html=1;align=center;verticalAlign=middle;resizable=0;points=[];autosize=1;strokeColor=none;fillColor=none;" parent="1" vertex="1">
          <mxGeometry x="-700" y="830" width="70" height="60" as="geometry" />
        </mxCell>
        <mxCell id="F_v_zHEDnyoKxbIlZ8uZ-16" value="" style="edgeStyle=orthogonalEdgeStyle;rounded=0;orthogonalLoop=1;jettySize=auto;html=1;" parent="1" source="F_v_zHEDnyoKxbIlZ8uZ-14" target="F_v_zHEDnyoKxbIlZ8uZ-15" edge="1">
          <mxGeometry relative="1" as="geometry" />
        </mxCell>
        <mxCell id="F_v_zHEDnyoKxbIlZ8uZ-14" value="album.AlbumSongList" style="rounded=1;whiteSpace=wrap;html=1;fillColor=#d5e8d4;strokeColor=#82b366;" parent="1" vertex="1">
          <mxGeometry y="590" width="120" height="60" as="geometry" />
        </mxCell>
        <mxCell id="F_v_zHEDnyoKxbIlZ8uZ-15" value="albumservice.AlbumSongList" style="rounded=1;whiteSpace=wrap;html=1;fillColor=#d5e8d4;strokeColor=#82b366;" parent="1" vertex="1">
          <mxGeometry y="880" width="120" height="60" as="geometry" />
        </mxCell>
        <mxCell id="F_v_zHEDnyoKxbIlZ8uZ-18" value="songservice.SongHistory" style="rounded=1;whiteSpace=wrap;html=1;fillColor=#d5e8d4;strokeColor=#82b366;" parent="1" vertex="1">
          <mxGeometry x="340" y="590" width="120" height="60" as="geometry" />
        </mxCell>
        <mxCell id="F_v_zHEDnyoKxbIlZ8uZ-19" value="searchservice.SearchSynthetical" style="rounded=1;whiteSpace=wrap;html=1;fillColor=#d5e8d4;strokeColor=#82b366;" parent="1" vertex="1">
          <mxGeometry x="570" y="590" width="120" height="60" as="geometry" />
        </mxCell>
        <mxCell id="F_v_zHEDnyoKxbIlZ8uZ-21" value="indexservice.HomePageSection" style="rounded=1;whiteSpace=wrap;html=1;" parent="1" vertex="1">
          <mxGeometry x="840" y="590" width="120" height="60" as="geometry" />
        </mxCell>
        <mxCell id="F_v_zHEDnyoKxbIlZ8uZ-23" value="Post" style="text;html=1;align=center;verticalAlign=middle;resizable=0;points=[];autosize=1;strokeColor=none;fillColor=none;" parent="1" vertex="1">
          <mxGeometry x="660" y="430" width="50" height="30" as="geometry" />
        </mxCell>
        <mxCell id="F_v_zHEDnyoKxbIlZ8uZ-25" value="indexservice.HomePageSection" style="rounded=1;whiteSpace=wrap;html=1;" parent="1" vertex="1">
          <mxGeometry x="1070" y="590" width="120" height="60" as="geometry" />
        </mxCell>
        <mxCell id="7UqZej8nxBiyiW-9HLtL-21" style="edgeStyle=orthogonalEdgeStyle;rounded=0;orthogonalLoop=1;jettySize=auto;html=1;exitX=0.5;exitY=1;exitDx=0;exitDy=0;entryX=0;entryY=0.5;entryDx=0;entryDy=0;" edge="1" parent="1" source="F_v_zHEDnyoKxbIlZ8uZ-26" target="F_v_zHEDnyoKxbIlZ8uZ-27">
          <mxGeometry relative="1" as="geometry" />
        </mxCell>
        <mxCell id="F_v_zHEDnyoKxbIlZ8uZ-26" value="&lt;strong style=&quot;box-sizing: border-box; color: rgb(51, 51, 51); font-family: &amp;quot;Open Sans&amp;quot;, &amp;quot;Clear Sans&amp;quot;, &amp;quot;Helvetica Neue&amp;quot;, Helvetica, Arial, &amp;quot;Segoe UI Emoji&amp;quot;, sans-serif; font-size: 16px; orphans: 4; text-align: left; white-space-collapse: preserve;&quot;&gt;favoriatesongservice&lt;/strong&gt;" style="ellipse;whiteSpace=wrap;html=1;" parent="1" vertex="1">
          <mxGeometry x="-1209" y="2443" width="190" height="120" as="geometry" />
        </mxCell>
        <mxCell id="F_v_zHEDnyoKxbIlZ8uZ-27" value="&lt;strong style=&quot;box-sizing: border-box; color: rgb(51, 51, 51); font-family: &amp;quot;Open Sans&amp;quot;, &amp;quot;Clear Sans&amp;quot;, &amp;quot;Helvetica Neue&amp;quot;, Helvetica, Arial, &amp;quot;Segoe UI Emoji&amp;quot;, sans-serif; font-size: 16px; orphans: 4; text-align: left; white-space-collapse: preserve;&quot;&gt;commonservice&lt;/strong&gt;" style="ellipse;whiteSpace=wrap;html=1;" parent="1" vertex="1">
          <mxGeometry x="-987" y="2716" width="190" height="120" as="geometry" />
        </mxCell>
        <mxCell id="F_v_zHEDnyoKxbIlZ8uZ-30" value="favoriatesongservice.IsFavoriteAudioSongIds" style="text;html=1;align=center;verticalAlign=middle;resizable=0;points=[];autosize=1;strokeColor=none;fillColor=none;fontSize=18;" parent="1" vertex="1">
          <mxGeometry x="-1092" y="2394" width="380" height="40" as="geometry" />
        </mxCell>
        <mxCell id="F_v_zHEDnyoKxbIlZ8uZ-31" value="commonservice.GetRelatedInfos" style="text;whiteSpace=wrap;html=1;fontSize=18;" parent="1" vertex="1">
          <mxGeometry x="-1287" y="2820" width="310" height="32" as="geometry" />
        </mxCell>
        <mxCell id="7UqZej8nxBiyiW-9HLtL-22" style="edgeStyle=orthogonalEdgeStyle;rounded=0;orthogonalLoop=1;jettySize=auto;html=1;exitX=0;exitY=0.5;exitDx=0;exitDy=0;entryX=1;entryY=0.5;entryDx=0;entryDy=0;" edge="1" parent="1" source="7UqZej8nxBiyiW-9HLtL-1" target="F_v_zHEDnyoKxbIlZ8uZ-26">
          <mxGeometry relative="1" as="geometry" />
        </mxCell>
        <mxCell id="7UqZej8nxBiyiW-9HLtL-31" style="edgeStyle=orthogonalEdgeStyle;rounded=0;orthogonalLoop=1;jettySize=auto;html=1;exitX=0.5;exitY=1;exitDx=0;exitDy=0;entryX=1;entryY=0.5;entryDx=0;entryDy=0;" edge="1" parent="1" source="7UqZej8nxBiyiW-9HLtL-1" target="F_v_zHEDnyoKxbIlZ8uZ-27">
          <mxGeometry relative="1" as="geometry" />
        </mxCell>
        <mxCell id="7UqZej8nxBiyiW-9HLtL-1" value="&lt;strong style=&quot;box-sizing: border-box; color: rgb(51, 51, 51); font-family: &amp;quot;Open Sans&amp;quot;, &amp;quot;Clear Sans&amp;quot;, &amp;quot;Helvetica Neue&amp;quot;, Helvetica, Arial, &amp;quot;Segoe UI Emoji&amp;quot;, sans-serif; font-size: 16px; orphans: 4; text-align: left; white-space-collapse: preserve;&quot;&gt;songservice&lt;/strong&gt;" style="ellipse;whiteSpace=wrap;html=1;" vertex="1" parent="1">
          <mxGeometry x="-761" y="2443" width="190" height="120" as="geometry" />
        </mxCell>
        <mxCell id="7UqZej8nxBiyiW-9HLtL-20" style="edgeStyle=orthogonalEdgeStyle;rounded=0;orthogonalLoop=1;jettySize=auto;html=1;exitX=0;exitY=0.5;exitDx=0;exitDy=0;entryX=0;entryY=0.5;entryDx=0;entryDy=0;" edge="1" parent="1" source="7UqZej8nxBiyiW-9HLtL-6" target="7UqZej8nxBiyiW-9HLtL-7">
          <mxGeometry relative="1" as="geometry" />
        </mxCell>
        <mxCell id="7UqZej8nxBiyiW-9HLtL-6" value="&lt;strong style=&quot;box-sizing: border-box; color: rgb(51, 51, 51); font-family: &amp;quot;Open Sans&amp;quot;, &amp;quot;Clear Sans&amp;quot;, &amp;quot;Helvetica Neue&amp;quot;, Helvetica, Arial, &amp;quot;Segoe UI Emoji&amp;quot;, sans-serif; font-size: 16px; orphans: 4; text-align: left; white-space-collapse: preserve;&quot;&gt;favoriatesongservice&lt;/strong&gt;" style="ellipse;whiteSpace=wrap;html=1;" vertex="1" parent="1">
          <mxGeometry x="-1024" y="1696" width="190" height="120" as="geometry" />
        </mxCell>
        <mxCell id="7UqZej8nxBiyiW-9HLtL-19" style="edgeStyle=orthogonalEdgeStyle;rounded=0;orthogonalLoop=1;jettySize=auto;html=1;exitX=1;exitY=0.5;exitDx=0;exitDy=0;entryX=1;entryY=0.5;entryDx=0;entryDy=0;" edge="1" parent="1" source="7UqZej8nxBiyiW-9HLtL-7" target="7UqZej8nxBiyiW-9HLtL-6">
          <mxGeometry relative="1" as="geometry" />
        </mxCell>
        <mxCell id="7UqZej8nxBiyiW-9HLtL-7" value="&lt;strong style=&quot;box-sizing: border-box; color: rgb(51, 51, 51); font-family: &amp;quot;Open Sans&amp;quot;, &amp;quot;Clear Sans&amp;quot;, &amp;quot;Helvetica Neue&amp;quot;, Helvetica, Arial, &amp;quot;Segoe UI Emoji&amp;quot;, sans-serif; font-size: 16px; orphans: 4; text-align: left; white-space-collapse: preserve;&quot;&gt;commonservice&lt;/strong&gt;" style="ellipse;whiteSpace=wrap;html=1;" vertex="1" parent="1">
          <mxGeometry x="-1024" y="2019" width="190" height="120" as="geometry" />
        </mxCell>
        <mxCell id="7UqZej8nxBiyiW-9HLtL-8" value="commonservice.GetRelatedInfos" style="text;whiteSpace=wrap;html=1;fontSize=18;" vertex="1" parent="1">
          <mxGeometry x="-1321" y="1885" width="268" height="33" as="geometry" />
        </mxCell>
        <mxCell id="7UqZej8nxBiyiW-9HLtL-11" value="favoriatesongservice.IsFavoriteAudioSongIds" style="text;html=1;align=center;verticalAlign=middle;resizable=0;points=[];autosize=1;strokeColor=none;fillColor=none;fontSize=18;" vertex="1" parent="1">
          <mxGeometry x="-810" y="1885" width="380" height="40" as="geometry" />
        </mxCell>
        <mxCell id="7UqZej8nxBiyiW-9HLtL-13" value="解决方法：重构代码，将依赖转移到上层" style="text;html=1;align=center;verticalAlign=middle;resizable=0;points=[];autosize=1;strokeColor=none;fillColor=none;fontSize=20;fontStyle=1" vertex="1" parent="1">
          <mxGeometry x="-1402" y="2303" width="378" height="36" as="geometry" />
        </mxCell>
        <mxCell id="7UqZej8nxBiyiW-9HLtL-24" style="edgeStyle=orthogonalEdgeStyle;rounded=0;orthogonalLoop=1;jettySize=auto;html=1;exitX=0;exitY=0.5;exitDx=0;exitDy=0;" edge="1" parent="1" source="7UqZej8nxBiyiW-9HLtL-15" target="7UqZej8nxBiyiW-9HLtL-16">
          <mxGeometry relative="1" as="geometry" />
        </mxCell>
        <mxCell id="7UqZej8nxBiyiW-9HLtL-15" value="&lt;div style=&quot;orphans: 4; text-align: left;&quot;&gt;&lt;span style=&quot;background-color: initial; font-size: 16px; white-space-collapse: preserve;&quot;&gt;&lt;font face=&quot;Open Sans, Clear Sans, Helvetica Neue, Helvetica, Arial, Segoe UI Emoji, sans-serif&quot; color=&quot;#333333&quot;&gt;&lt;b&gt;selfsonglistservice&lt;/b&gt;&lt;/font&gt;&lt;/span&gt;&lt;/div&gt;" style="ellipse;whiteSpace=wrap;html=1;" vertex="1" parent="1">
          <mxGeometry x="460" y="1800" width="190" height="120" as="geometry" />
        </mxCell>
        <mxCell id="7UqZej8nxBiyiW-9HLtL-23" style="edgeStyle=orthogonalEdgeStyle;rounded=0;orthogonalLoop=1;jettySize=auto;html=1;exitX=0.5;exitY=1;exitDx=0;exitDy=0;entryX=0;entryY=0.5;entryDx=0;entryDy=0;" edge="1" parent="1" source="7UqZej8nxBiyiW-9HLtL-16" target="7UqZej8nxBiyiW-9HLtL-18">
          <mxGeometry relative="1" as="geometry" />
        </mxCell>
        <mxCell id="7UqZej8nxBiyiW-9HLtL-16" value="&lt;div style=&quot;orphans: 4; text-align: left;&quot;&gt;&lt;strong style=&quot;white-space-collapse: preserve; box-sizing: border-box; color: rgb(51, 51, 51); font-family: &amp;quot;Open Sans&amp;quot;, &amp;quot;Clear Sans&amp;quot;, &amp;quot;Helvetica Neue&amp;quot;, Helvetica, Arial, &amp;quot;Segoe UI Emoji&amp;quot;, sans-serif; font-size: 16px;&quot;&gt;favoriatesongservice&lt;/strong&gt;&lt;br&gt;&lt;/div&gt;" style="ellipse;whiteSpace=wrap;html=1;" vertex="1" parent="1">
          <mxGeometry x="-12" y="1800" width="190" height="120" as="geometry" />
        </mxCell>
        <mxCell id="7UqZej8nxBiyiW-9HLtL-25" style="edgeStyle=orthogonalEdgeStyle;rounded=0;orthogonalLoop=1;jettySize=auto;html=1;exitX=1;exitY=0.5;exitDx=0;exitDy=0;" edge="1" parent="1" source="7UqZej8nxBiyiW-9HLtL-18" target="7UqZej8nxBiyiW-9HLtL-15">
          <mxGeometry relative="1" as="geometry" />
        </mxCell>
        <mxCell id="7UqZej8nxBiyiW-9HLtL-18" value="&lt;font style=&quot;font-size: 16px;&quot;&gt;&lt;b style=&quot;&quot;&gt;commonservice&lt;/b&gt;&lt;/font&gt;" style="ellipse;whiteSpace=wrap;html=1;" vertex="1" parent="1">
          <mxGeometry x="240" y="2023" width="190" height="120" as="geometry" />
        </mxCell>
        <mxCell id="7UqZej8nxBiyiW-9HLtL-26" value="selfsonglistservice.GetSonglistInfos()" style="text;html=1;align=center;verticalAlign=middle;resizable=0;points=[];autosize=1;strokeColor=none;fillColor=none;fontSize=16;fontStyle=1" vertex="1" parent="1">
          <mxGeometry x="415" y="1995" width="280" height="31" as="geometry" />
        </mxCell>
        <mxCell id="7UqZej8nxBiyiW-9HLtL-27" value="commonservice.GetRelatedInfos()" style="text;html=1;align=center;verticalAlign=middle;resizable=0;points=[];autosize=1;strokeColor=none;fillColor=none;fontSize=16;fontStyle=1" vertex="1" parent="1">
          <mxGeometry x="-77" y="1988" width="261" height="31" as="geometry" />
        </mxCell>
        <mxCell id="7UqZej8nxBiyiW-9HLtL-28" value="favoriatesongservice.IsFavoriteAudioSongIds()" style="text;html=1;align=center;verticalAlign=middle;resizable=0;points=[];autosize=1;strokeColor=none;fillColor=none;fontSize=16;fontStyle=1" vertex="1" parent="1">
          <mxGeometry x="142" y="1791" width="350" height="31" as="geometry" />
        </mxCell>
        <mxCell id="7UqZej8nxBiyiW-9HLtL-32" style="edgeStyle=orthogonalEdgeStyle;rounded=0;orthogonalLoop=1;jettySize=auto;html=1;exitX=0.5;exitY=1;exitDx=0;exitDy=0;" edge="1" parent="1" source="7UqZej8nxBiyiW-9HLtL-30" target="7UqZej8nxBiyiW-9HLtL-15">
          <mxGeometry relative="1" as="geometry" />
        </mxCell>
        <mxCell id="7UqZej8nxBiyiW-9HLtL-30" value="&lt;div style=&quot;orphans: 4;&quot;&gt;&lt;span style=&quot;background-color: initial; font-size: 16px; white-space-collapse: preserve;&quot;&gt;&lt;font face=&quot;Open Sans, Clear Sans, Helvetica Neue, Helvetica, Arial, Segoe UI Emoji, sans-serif&quot; color=&quot;#333333&quot;&gt;&lt;b&gt;controller&lt;/b&gt;&lt;/font&gt;&lt;/span&gt;&lt;/div&gt;&lt;div style=&quot;orphans: 4;&quot;&gt;&lt;span style=&quot;background-color: initial; font-size: 16px; white-space-collapse: preserve;&quot;&gt;&lt;font face=&quot;Open Sans, Clear Sans, Helvetica Neue, Helvetica, Arial, Segoe UI Emoji, sans-serif&quot; color=&quot;#333333&quot;&gt;&lt;b&gt;&lt;br&gt;&lt;/b&gt;&lt;/font&gt;&lt;/span&gt;&lt;/div&gt;&lt;div style=&quot;orphans: 4;&quot;&gt;&lt;span style=&quot;background-color: initial; font-size: 16px; white-space-collapse: preserve;&quot;&gt;&lt;font face=&quot;Open Sans, Clear Sans, Helvetica Neue, Helvetica, Arial, Segoe UI Emoji, sans-serif&quot; color=&quot;#333333&quot;&gt;&lt;b&gt;selfsonglistservice&lt;/b&gt;&lt;/font&gt;&lt;/span&gt;&lt;/div&gt;" style="ellipse;whiteSpace=wrap;html=1;align=center;" vertex="1" parent="1">
          <mxGeometry x="460" y="1559" width="190" height="120" as="geometry" />
        </mxCell>
        <mxCell id="7UqZej8nxBiyiW-9HLtL-38" value="循环引用的原因：没有清晰地认识到层级结构，下层依赖于上层" style="text;html=1;align=center;verticalAlign=middle;resizable=0;points=[];autosize=1;strokeColor=none;fillColor=none;fontSize=20;fontStyle=1" vertex="1" parent="1">
          <mxGeometry x="-1218" y="1583" width="578" height="36" as="geometry" />
        </mxCell>
        <mxCell id="7UqZej8nxBiyiW-9HLtL-39" style="edgeStyle=orthogonalEdgeStyle;rounded=0;orthogonalLoop=1;jettySize=auto;html=1;exitX=0;exitY=0.5;exitDx=0;exitDy=0;" edge="1" parent="1" source="7UqZej8nxBiyiW-9HLtL-40" target="7UqZej8nxBiyiW-9HLtL-42">
          <mxGeometry relative="1" as="geometry" />
        </mxCell>
        <mxCell id="7UqZej8nxBiyiW-9HLtL-40" value="&lt;div style=&quot;orphans: 4; text-align: left;&quot;&gt;&lt;span style=&quot;background-color: initial; font-size: 16px; white-space-collapse: preserve;&quot;&gt;&lt;font face=&quot;Open Sans, Clear Sans, Helvetica Neue, Helvetica, Arial, Segoe UI Emoji, sans-serif&quot; color=&quot;#333333&quot;&gt;&lt;b&gt;selfsonglistservice&lt;/b&gt;&lt;/font&gt;&lt;/span&gt;&lt;/div&gt;" style="ellipse;whiteSpace=wrap;html=1;" vertex="1" parent="1">
          <mxGeometry x="478" y="2536" width="190" height="120" as="geometry" />
        </mxCell>
        <mxCell id="7UqZej8nxBiyiW-9HLtL-41" style="edgeStyle=orthogonalEdgeStyle;rounded=0;orthogonalLoop=1;jettySize=auto;html=1;exitX=0.5;exitY=1;exitDx=0;exitDy=0;entryX=0;entryY=0.5;entryDx=0;entryDy=0;" edge="1" parent="1" source="7UqZej8nxBiyiW-9HLtL-42" target="7UqZej8nxBiyiW-9HLtL-44">
          <mxGeometry relative="1" as="geometry" />
        </mxCell>
        <mxCell id="7UqZej8nxBiyiW-9HLtL-42" value="&lt;div style=&quot;orphans: 4; text-align: left;&quot;&gt;&lt;strong style=&quot;white-space-collapse: preserve; box-sizing: border-box; color: rgb(51, 51, 51); font-family: &amp;quot;Open Sans&amp;quot;, &amp;quot;Clear Sans&amp;quot;, &amp;quot;Helvetica Neue&amp;quot;, Helvetica, Arial, &amp;quot;Segoe UI Emoji&amp;quot;, sans-serif; font-size: 16px;&quot;&gt;favoriatesongservice&lt;/strong&gt;&lt;br&gt;&lt;/div&gt;" style="ellipse;whiteSpace=wrap;html=1;" vertex="1" parent="1">
          <mxGeometry x="6" y="2536" width="190" height="120" as="geometry" />
        </mxCell>
        <mxCell id="7UqZej8nxBiyiW-9HLtL-44" value="&lt;font style=&quot;font-size: 16px;&quot;&gt;&lt;b style=&quot;&quot;&gt;commonservice&lt;/b&gt;&lt;/font&gt;" style="ellipse;whiteSpace=wrap;html=1;" vertex="1" parent="1">
          <mxGeometry x="258" y="2759" width="190" height="120" as="geometry" />
        </mxCell>
        <mxCell id="7UqZej8nxBiyiW-9HLtL-45" value="selfsonglistservice.GetSonglistInfos()" style="text;html=1;align=center;verticalAlign=middle;resizable=0;points=[];autosize=1;strokeColor=none;fillColor=none;fontSize=16;fontStyle=1" vertex="1" parent="1">
          <mxGeometry x="704" y="2545" width="280" height="31" as="geometry" />
        </mxCell>
        <mxCell id="7UqZej8nxBiyiW-9HLtL-46" value="commonservice.GetRelatedInfos()" style="text;html=1;align=center;verticalAlign=middle;resizable=0;points=[];autosize=1;strokeColor=none;fillColor=none;fontSize=16;fontStyle=1" vertex="1" parent="1">
          <mxGeometry x="-59" y="2724" width="261" height="31" as="geometry" />
        </mxCell>
        <mxCell id="7UqZej8nxBiyiW-9HLtL-47" value="favoriatesongservice.IsFavoriteAudioSongIds()" style="text;html=1;align=center;verticalAlign=middle;resizable=0;points=[];autosize=1;strokeColor=none;fillColor=none;fontSize=16;fontStyle=1" vertex="1" parent="1">
          <mxGeometry x="160" y="2527" width="350" height="31" as="geometry" />
        </mxCell>
        <mxCell id="7UqZej8nxBiyiW-9HLtL-48" value="解决方法：重构代码，将依赖转移到上层" style="text;html=1;align=center;verticalAlign=middle;resizable=0;points=[];autosize=1;strokeColor=none;fillColor=none;fontSize=20;fontStyle=1" vertex="1" parent="1">
          <mxGeometry x="-203" y="2392" width="378" height="36" as="geometry" />
        </mxCell>
        <mxCell id="7UqZej8nxBiyiW-9HLtL-49" style="edgeStyle=orthogonalEdgeStyle;rounded=0;orthogonalLoop=1;jettySize=auto;html=1;exitX=0.5;exitY=1;exitDx=0;exitDy=0;" edge="1" parent="1" source="7UqZej8nxBiyiW-9HLtL-50" target="7UqZej8nxBiyiW-9HLtL-40">
          <mxGeometry relative="1" as="geometry" />
        </mxCell>
        <mxCell id="7UqZej8nxBiyiW-9HLtL-50" value="&lt;div style=&quot;orphans: 4;&quot;&gt;&lt;span style=&quot;background-color: initial; font-size: 16px; white-space-collapse: preserve;&quot;&gt;&lt;font face=&quot;Open Sans, Clear Sans, Helvetica Neue, Helvetica, Arial, Segoe UI Emoji, sans-serif&quot; color=&quot;#333333&quot;&gt;&lt;b&gt;controller&lt;/b&gt;&lt;/font&gt;&lt;/span&gt;&lt;/div&gt;&lt;div style=&quot;orphans: 4;&quot;&gt;&lt;span style=&quot;background-color: initial; font-size: 16px; white-space-collapse: preserve;&quot;&gt;&lt;font face=&quot;Open Sans, Clear Sans, Helvetica Neue, Helvetica, Arial, Segoe UI Emoji, sans-serif&quot; color=&quot;#333333&quot;&gt;&lt;b&gt;&lt;br&gt;&lt;/b&gt;&lt;/font&gt;&lt;/span&gt;&lt;/div&gt;&lt;div style=&quot;orphans: 4;&quot;&gt;&lt;span style=&quot;background-color: initial; font-size: 16px; white-space-collapse: preserve;&quot;&gt;&lt;font face=&quot;Open Sans, Clear Sans, Helvetica Neue, Helvetica, Arial, Segoe UI Emoji, sans-serif&quot; color=&quot;#333333&quot;&gt;&lt;b&gt;selfsonglistservice&lt;/b&gt;&lt;/font&gt;&lt;/span&gt;&lt;/div&gt;" style="ellipse;whiteSpace=wrap;html=1;align=center;" vertex="1" parent="1">
          <mxGeometry x="478" y="2295" width="190" height="120" as="geometry" />
        </mxCell>
        <mxCell id="7UqZej8nxBiyiW-9HLtL-52" style="edgeStyle=orthogonalEdgeStyle;rounded=0;orthogonalLoop=1;jettySize=auto;html=1;exitX=0;exitY=0.5;exitDx=0;exitDy=0;entryX=1;entryY=0.5;entryDx=0;entryDy=0;" edge="1" parent="1" source="7UqZej8nxBiyiW-9HLtL-51" target="7UqZej8nxBiyiW-9HLtL-40">
          <mxGeometry relative="1" as="geometry" />
        </mxCell>
        <mxCell id="7UqZej8nxBiyiW-9HLtL-53" style="edgeStyle=orthogonalEdgeStyle;rounded=0;orthogonalLoop=1;jettySize=auto;html=1;exitX=0.5;exitY=1;exitDx=0;exitDy=0;entryX=1;entryY=0.5;entryDx=0;entryDy=0;" edge="1" parent="1" source="7UqZej8nxBiyiW-9HLtL-51" target="7UqZej8nxBiyiW-9HLtL-44">
          <mxGeometry relative="1" as="geometry" />
        </mxCell>
        <mxCell id="7UqZej8nxBiyiW-9HLtL-51" value="&lt;div style=&quot;orphans: 4; text-align: left;&quot;&gt;&lt;span style=&quot;background-color: initial; font-size: 16px; white-space-collapse: preserve;&quot;&gt;&lt;font face=&quot;Open Sans, Clear Sans, Helvetica Neue, Helvetica, Arial, Segoe UI Emoji, sans-serif&quot; color=&quot;#333333&quot;&gt;&lt;b&gt;songlistservice&lt;/b&gt;&lt;/font&gt;&lt;/span&gt;&lt;/div&gt;" style="ellipse;whiteSpace=wrap;html=1;" vertex="1" parent="1">
          <mxGeometry x="988" y="2536" width="190" height="120" as="geometry" />
        </mxCell>
        <mxCell id="7UqZej8nxBiyiW-9HLtL-54" value="commonservice.GetRelatedInfos()" style="text;html=1;align=center;verticalAlign=middle;resizable=0;points=[];autosize=1;strokeColor=none;fillColor=none;fontSize=16;fontStyle=1" vertex="1" parent="1">
          <mxGeometry x="597" y="2776" width="261" height="31" as="geometry" />
        </mxCell>
        <mxCell id="7UqZej8nxBiyiW-9HLtL-55" value="循环引用的原因：没有清晰地认识到层级结构，下层依赖于上层" style="text;html=1;align=center;verticalAlign=middle;resizable=0;points=[];autosize=1;strokeColor=none;fillColor=none;fontSize=20;fontStyle=1" vertex="1" parent="1">
          <mxGeometry x="-56" y="1385" width="578" height="36" as="geometry" />
        </mxCell>
      </root>
    </mxGraphModel>
  </diagram>
</mxfile>
